<?xml version="1.0" encoding="utf-8"?>
<!-- Generator: Adobe Illustrator 18.1.1, SVG Export Plug-In . SVG Version: 6.00 Build 0)  -->
<svg version="1.1" id="Calque_1" xmlns="http://www.w3.org/2000/svg" xmlns:xlink="http://www.w3.org/1999/xlink" x="0px" y="0px"
	 viewBox="-84 58.4 595.5 595.4" enable-background="new -84 58.4 595.5 595.4" xml:space="preserve">
<g>
	<path d="M215.5,58.4C50.1,58.4-84,190.7-84,356.1S50.1,653.8,213.7,653.8c165.4,0,297.7-134.2,297.7-297.7
		C513.2,190.7,378.9,58.4,215.5,58.4z"/>
	<g>
		<path fill="#FFFFFF" d="M213.7,210.2c-48.7,0-87.6,33-99.2,77.8c-2,7.8-3.9,17.5-3.9,25.3c0,15.5,7.8,40.9,17.5,56.4
			c3.9,5.9,85.6,132.4,85.6,132.4s81.7-128.4,85.6-132.4c9.8-17.5,17.5-40.9,17.5-56.4c0-9.8-2-17.5-3.9-25.3
			C301.3,243.2,260.4,210.2,213.7,210.2z"/>
		<circle cx="213.7" cy="309.4" r="36.9"/>
	</g>
</g>
</svg>
