<?xml version="1.0" encoding="utf-8"?>
<!-- Generator: Adobe Illustrator 18.1.1, SVG Export Plug-In . SVG Version: 6.00 Build 0)  -->
<svg version="1.1" id="Calque_1" xmlns="http://www.w3.org/2000/svg" xmlns:xlink="http://www.w3.org/1999/xlink" x="0px" y="0px"
	 viewBox="115.5 356.1 595.5 595.4" enable-background="new 115.5 356.1 595.5 595.4" xml:space="preserve">
<g>
	<path d="M415,356.1c-165.4,0-299.5,132.4-299.5,297.7s134.2,297.7,297.7,297.7c165.4,0,297.7-134.2,297.7-297.7
		C712.7,488.5,578.4,356.1,415,356.1z"/>
	<g>
		<g>
			<path fill="#FFFFFF" d="M491,669.4c-19.4,19.4-46.7,33-77.8,33s-58.3-13.6-77.8-33c-35,23.4-58.3,72.1-58.3,111h272.2
				C549.3,741.4,527.9,694.7,491,669.4z"/>
			<path fill="#FFFFFF" d="M374.2,651.9c11.6,7.8,25.3,11.6,38.9,11.6c15.5,0,29.2-3.9,38.9-11.6c17.5-11.6,29.2-33,29.2-56.4
				c0-36.9-31-68.1-68.1-68.1s-68.1,31-68.1,68.1C345.1,618.9,356.7,640.3,374.2,651.9z"/>
		</g>
	</g>
</g>
</svg>
