<?xml version="1.0" encoding="utf-8"?>
<!-- Generator: Adobe Illustrator 18.1.1, SVG Export Plug-In . SVG Version: 6.00 Build 0)  -->
<svg version="1.1" id="Calque_1" xmlns="http://www.w3.org/2000/svg" xmlns:xlink="http://www.w3.org/1999/xlink" x="0px" y="0px"
	 viewBox="115.5 356.1 595.5 595.4" enable-background="new 115.5 356.1 595.5 595.4" xml:space="preserve">
<g>
	<path d="M415,356.1c-165.4,0-299.5,132.4-299.5,297.7s134.2,297.7,297.7,297.7c165.4,0,297.7-134.2,297.7-297.7
		C712.7,488.5,578.4,356.1,415,356.1z"/>
	<g>
		<path fill="#FFFFFF" d="M539.5,605.1h-60.3c0,0,0-2,0-3.9c0-38.9-29.2-68.1-66.2-68.1s-66.2,29.2-66.2,68.1c0,2,0,3.9,0,3.9h-60.3
			c-5.9,0-9.8,7.8-9.8,13.6l27.3,144c2,11.6,13.6,19.4,25.3,19.4h44.8h81.7h40.9c11.6,0,23.4-5.9,25.3-17.5l27.3-145.9
			C551.3,611,545.4,605.1,539.5,605.1z M452.1,605.1h-11.6h-52.5h-11.9c0,0,0-2,0-3.9c0-23.4,17.5-40.9,38.9-40.9
			c21.4,0,38.9,17.5,38.9,38.9C452.1,603.2,452.1,605.1,452.1,605.1z"/>
	</g>
</g>
</svg>
