<?xml version="1.0" encoding="utf-8"?>
<!-- Generator: Adobe Illustrator 18.1.1, SVG Export Plug-In . SVG Version: 6.00 Build 0)  -->
<svg version="1.1" id="Calque_1" xmlns="http://www.w3.org/2000/svg" xmlns:xlink="http://www.w3.org/1999/xlink" x="0px" y="0px"
	 viewBox="115.5 356.1 595.5 595.4" enable-background="new 115.5 356.1 595.5 595.4" xml:space="preserve">
<g>
	<path d="M415,356.1c-165.4,0-299.5,132.4-299.5,297.7s134.2,297.7,297.7,297.7c165.4,0,297.7-134.2,297.7-297.7
		C712.7,488.5,578.4,356.1,415,356.1z"/>
	<g>
		<rect x="380.1" y="737.5" fill="#FFFFFF" width="62.3" height="60.3"/>
		<path fill="#FFFFFF" d="M479.2,653.8c-17.5,13.6-35,23.4-38.9,46.7v15.5h-52.5v-17.5c2-35,19.4-50.7,35-62.3
			c15.5-11.6,29.2-21.4,29.2-42.8c0-23.4-11.6-35-33-35c-29.2,0-40.9,23.4-40.9,50.7h-58.3c2-56.4,38.9-97.2,95.3-97.2
			c73.9,0,99.2,46.7,99.2,75.8C512.4,624.6,494.8,640.3,479.2,653.8z"/>
	</g>
</g>
</svg>
